<mxfile host="app.diagrams.net" modified="2022-09-23T22:17:51.418Z" agent="5.0 (Windows)" etag="HIh96jO7Xo1bfuqkGDc2" version="20.3.6" type="github">
  <diagram id="Tv00bOvf_KqW47BSWtnD" name="Page-1">
    <mxGraphModel dx="1038" dy="528" grid="1" gridSize="10" guides="1" tooltips="1" connect="1" arrows="1" fold="1" page="1" pageScale="1" pageWidth="850" pageHeight="1100" math="0" shadow="0">
      <root>
        <mxCell id="0" />
        <mxCell id="1" parent="0" />
        <mxCell id="eTMuSjd8Qrg-Vh-RTC_D-1" value="IDLE" style="ellipse;whiteSpace=wrap;html=1;" vertex="1" parent="1">
          <mxGeometry x="360" y="90" width="120" height="80" as="geometry" />
        </mxCell>
        <mxCell id="eTMuSjd8Qrg-Vh-RTC_D-2" value="READ_FRESH" style="ellipse;whiteSpace=wrap;html=1;" vertex="1" parent="1">
          <mxGeometry x="240" y="320" width="120" height="80" as="geometry" />
        </mxCell>
        <mxCell id="eTMuSjd8Qrg-Vh-RTC_D-3" value="HIT" style="ellipse;whiteSpace=wrap;html=1;" vertex="1" parent="1">
          <mxGeometry x="360" y="200" width="120" height="80" as="geometry" />
        </mxCell>
        <mxCell id="eTMuSjd8Qrg-Vh-RTC_D-4" value="WRITE_DIRTY" style="ellipse;whiteSpace=wrap;html=1;" vertex="1" parent="1">
          <mxGeometry x="480" y="320" width="120" height="80" as="geometry" />
        </mxCell>
        <mxCell id="eTMuSjd8Qrg-Vh-RTC_D-5" value="DONE" style="ellipse;whiteSpace=wrap;html=1;" vertex="1" parent="1">
          <mxGeometry x="360" y="420" width="120" height="80" as="geometry" />
        </mxCell>
        <mxCell id="eTMuSjd8Qrg-Vh-RTC_D-6" value="" style="endArrow=classic;html=1;rounded=0;exitX=0.5;exitY=1;exitDx=0;exitDy=0;entryX=0.5;entryY=0;entryDx=0;entryDy=0;" edge="1" parent="1" source="eTMuSjd8Qrg-Vh-RTC_D-1" target="eTMuSjd8Qrg-Vh-RTC_D-3">
          <mxGeometry width="50" height="50" relative="1" as="geometry">
            <mxPoint x="400" y="310" as="sourcePoint" />
            <mxPoint x="450" y="260" as="targetPoint" />
          </mxGeometry>
        </mxCell>
        <mxCell id="eTMuSjd8Qrg-Vh-RTC_D-7" value="" style="endArrow=classic;html=1;rounded=0;exitX=0;exitY=1;exitDx=0;exitDy=0;entryX=1;entryY=0;entryDx=0;entryDy=0;" edge="1" parent="1" source="eTMuSjd8Qrg-Vh-RTC_D-3" target="eTMuSjd8Qrg-Vh-RTC_D-2">
          <mxGeometry width="50" height="50" relative="1" as="geometry">
            <mxPoint x="400" y="310" as="sourcePoint" />
            <mxPoint x="450" y="260" as="targetPoint" />
          </mxGeometry>
        </mxCell>
        <mxCell id="eTMuSjd8Qrg-Vh-RTC_D-32" value="~cell_dirty &amp;amp;~ cell_hit" style="edgeLabel;html=1;align=center;verticalAlign=middle;resizable=0;points=[];" vertex="1" connectable="0" parent="eTMuSjd8Qrg-Vh-RTC_D-7">
          <mxGeometry x="-0.2145" y="-7" relative="1" as="geometry">
            <mxPoint x="-8" y="1" as="offset" />
          </mxGeometry>
        </mxCell>
        <mxCell id="eTMuSjd8Qrg-Vh-RTC_D-8" value="" style="endArrow=classic;html=1;rounded=0;exitX=1;exitY=1;exitDx=0;exitDy=0;entryX=0;entryY=0;entryDx=0;entryDy=0;" edge="1" parent="1" source="eTMuSjd8Qrg-Vh-RTC_D-3" target="eTMuSjd8Qrg-Vh-RTC_D-4">
          <mxGeometry width="50" height="50" relative="1" as="geometry">
            <mxPoint x="387.57359312880726" y="278.2842712474619" as="sourcePoint" />
            <mxPoint x="334" y="332" as="targetPoint" />
          </mxGeometry>
        </mxCell>
        <mxCell id="eTMuSjd8Qrg-Vh-RTC_D-9" value="" style="endArrow=classic;html=1;rounded=0;exitX=0;exitY=0.5;exitDx=0;exitDy=0;entryX=1;entryY=0.5;entryDx=0;entryDy=0;" edge="1" parent="1" source="eTMuSjd8Qrg-Vh-RTC_D-4" target="eTMuSjd8Qrg-Vh-RTC_D-2">
          <mxGeometry width="50" height="50" relative="1" as="geometry">
            <mxPoint x="400" y="310" as="sourcePoint" />
            <mxPoint x="450" y="260" as="targetPoint" />
          </mxGeometry>
        </mxCell>
        <mxCell id="eTMuSjd8Qrg-Vh-RTC_D-11" value="" style="endArrow=classic;html=1;rounded=0;exitX=1;exitY=1;exitDx=0;exitDy=0;entryX=0;entryY=0;entryDx=0;entryDy=0;" edge="1" parent="1" source="eTMuSjd8Qrg-Vh-RTC_D-2" target="eTMuSjd8Qrg-Vh-RTC_D-5">
          <mxGeometry width="50" height="50" relative="1" as="geometry">
            <mxPoint x="400" y="310" as="sourcePoint" />
            <mxPoint x="450" y="260" as="targetPoint" />
          </mxGeometry>
        </mxCell>
        <mxCell id="eTMuSjd8Qrg-Vh-RTC_D-12" value="" style="endArrow=classic;html=1;rounded=0;exitX=0.5;exitY=1;exitDx=0;exitDy=0;" edge="1" parent="1" source="eTMuSjd8Qrg-Vh-RTC_D-5" target="eTMuSjd8Qrg-Vh-RTC_D-13">
          <mxGeometry width="50" height="50" relative="1" as="geometry">
            <mxPoint x="400" y="310" as="sourcePoint" />
            <mxPoint x="420" y="561" as="targetPoint" />
          </mxGeometry>
        </mxCell>
        <mxCell id="eTMuSjd8Qrg-Vh-RTC_D-13" value="TO IDLE" style="text;html=1;strokeColor=none;fillColor=none;align=center;verticalAlign=middle;whiteSpace=wrap;rounded=0;" vertex="1" parent="1">
          <mxGeometry x="390" y="546" width="60" height="30" as="geometry" />
        </mxCell>
        <mxCell id="eTMuSjd8Qrg-Vh-RTC_D-15" value="" style="endArrow=classic;html=1;rounded=0;exitX=0;exitY=0;exitDx=0;exitDy=0;entryX=0;entryY=0.5;entryDx=0;entryDy=0;" edge="1" parent="1" source="eTMuSjd8Qrg-Vh-RTC_D-2" target="eTMuSjd8Qrg-Vh-RTC_D-2">
          <mxGeometry width="50" height="50" relative="1" as="geometry">
            <mxPoint x="400" y="260" as="sourcePoint" />
            <mxPoint x="450" y="210" as="targetPoint" />
            <Array as="points">
              <mxPoint x="220" y="300" />
              <mxPoint x="170" y="320" />
              <mxPoint x="190" y="360" />
            </Array>
          </mxGeometry>
        </mxCell>
        <mxCell id="eTMuSjd8Qrg-Vh-RTC_D-16" value="Siddharth " style="shape=umlActor;verticalLabelPosition=bottom;verticalAlign=top;html=1;outlineConnect=0;" vertex="1" parent="1">
          <mxGeometry x="770" y="150" width="30" height="60" as="geometry" />
        </mxCell>
        <mxCell id="eTMuSjd8Qrg-Vh-RTC_D-17" value="" style="endArrow=classic;html=1;rounded=0;exitX=1;exitY=0;exitDx=0;exitDy=0;entryX=1;entryY=0.5;entryDx=0;entryDy=0;" edge="1" parent="1" source="eTMuSjd8Qrg-Vh-RTC_D-4" target="eTMuSjd8Qrg-Vh-RTC_D-4">
          <mxGeometry width="50" height="50" relative="1" as="geometry">
            <mxPoint x="400" y="260" as="sourcePoint" />
            <mxPoint x="450" y="210" as="targetPoint" />
            <Array as="points">
              <mxPoint x="610" y="310" />
              <mxPoint x="660" y="320" />
              <mxPoint x="660" y="360" />
            </Array>
          </mxGeometry>
        </mxCell>
        <mxCell id="eTMuSjd8Qrg-Vh-RTC_D-18" value="" style="endArrow=classic;html=1;rounded=0;exitX=0.5;exitY=1;exitDx=0;exitDy=0;entryX=0.5;entryY=0;entryDx=0;entryDy=0;" edge="1" parent="1" source="eTMuSjd8Qrg-Vh-RTC_D-3" target="eTMuSjd8Qrg-Vh-RTC_D-5">
          <mxGeometry width="50" height="50" relative="1" as="geometry">
            <mxPoint x="400" y="410" as="sourcePoint" />
            <mxPoint x="450" y="360" as="targetPoint" />
          </mxGeometry>
        </mxCell>
        <mxCell id="eTMuSjd8Qrg-Vh-RTC_D-34" value="&lt;div&gt;cell_hit&lt;/div&gt;" style="edgeLabel;html=1;align=center;verticalAlign=middle;resizable=0;points=[];" vertex="1" connectable="0" parent="eTMuSjd8Qrg-Vh-RTC_D-18">
          <mxGeometry x="-0.4" y="6" relative="1" as="geometry">
            <mxPoint x="-6" y="-2" as="offset" />
          </mxGeometry>
        </mxCell>
        <mxCell id="eTMuSjd8Qrg-Vh-RTC_D-20" value="Prof. Kumar" style="shape=umlActor;verticalLabelPosition=bottom;verticalAlign=top;html=1;outlineConnect=0;" vertex="1" parent="1">
          <mxGeometry x="770" y="70" width="30" height="60" as="geometry" />
        </mxCell>
        <mxCell id="eTMuSjd8Qrg-Vh-RTC_D-21" value="&lt;div&gt;Srijan&lt;/div&gt;" style="shape=umlActor;verticalLabelPosition=bottom;verticalAlign=top;html=1;outlineConnect=0;" vertex="1" parent="1">
          <mxGeometry x="770" y="420" width="30" height="60" as="geometry" />
        </mxCell>
        <mxCell id="eTMuSjd8Qrg-Vh-RTC_D-24" value="Yian " style="shape=umlActor;verticalLabelPosition=bottom;verticalAlign=top;html=1;outlineConnect=0;" vertex="1" parent="1">
          <mxGeometry x="770" y="240" width="30" height="60" as="geometry" />
        </mxCell>
        <mxCell id="eTMuSjd8Qrg-Vh-RTC_D-25" value="Stanley " style="shape=umlActor;verticalLabelPosition=bottom;verticalAlign=top;html=1;outlineConnect=0;" vertex="1" parent="1">
          <mxGeometry x="770" y="510" width="30" height="60" as="geometry" />
        </mxCell>
        <mxCell id="eTMuSjd8Qrg-Vh-RTC_D-26" value="Zhuxuan " style="shape=umlActor;verticalLabelPosition=bottom;verticalAlign=top;html=1;outlineConnect=0;" vertex="1" parent="1">
          <mxGeometry x="770" y="320" width="30" height="60" as="geometry" />
        </mxCell>
        <mxCell id="eTMuSjd8Qrg-Vh-RTC_D-29" value="~pmem_resp" style="text;html=1;align=center;verticalAlign=middle;resizable=0;points=[];autosize=1;strokeColor=none;fillColor=none;" vertex="1" parent="1">
          <mxGeometry x="135" y="275" width="90" height="30" as="geometry" />
        </mxCell>
        <mxCell id="eTMuSjd8Qrg-Vh-RTC_D-30" value="~pmem_resp" style="text;html=1;align=center;verticalAlign=middle;resizable=0;points=[];autosize=1;strokeColor=none;fillColor=none;" vertex="1" parent="1">
          <mxGeometry x="620" y="280" width="90" height="30" as="geometry" />
        </mxCell>
        <mxCell id="eTMuSjd8Qrg-Vh-RTC_D-31" value="mem_read &lt;span class=&quot;ILfuVd&quot; lang=&quot;en&quot;&gt;&lt;span class=&quot;hgKElc&quot;&gt;&lt;span&gt;&lt;span&gt;&lt;b&gt;âŠ•&lt;/b&gt;&lt;/span&gt;&lt;/span&gt;&lt;/span&gt;&lt;/span&gt; mem_write" style="text;html=1;align=center;verticalAlign=middle;resizable=0;points=[];autosize=1;strokeColor=none;fillColor=none;" vertex="1" parent="1">
          <mxGeometry x="340" y="165" width="160" height="30" as="geometry" />
        </mxCell>
        <mxCell id="eTMuSjd8Qrg-Vh-RTC_D-33" value="cell_dirty &amp;amp; ~cell_hit " style="edgeLabel;html=1;align=center;verticalAlign=middle;resizable=0;points=[];" vertex="1" connectable="0" parent="1">
          <mxGeometry x="530.0000068128483" y="280.00314936967175" as="geometry" />
        </mxCell>
        <mxCell id="eTMuSjd8Qrg-Vh-RTC_D-36" value="pmem_resp" style="text;html=1;align=center;verticalAlign=middle;resizable=0;points=[];autosize=1;strokeColor=none;fillColor=none;" vertex="1" parent="1">
          <mxGeometry x="420" y="360" width="90" height="30" as="geometry" />
        </mxCell>
        <mxCell id="eTMuSjd8Qrg-Vh-RTC_D-40" value="pmem_resp" style="text;html=1;align=center;verticalAlign=middle;resizable=0;points=[];autosize=1;strokeColor=none;fillColor=none;" vertex="1" parent="1">
          <mxGeometry x="290" y="400" width="90" height="30" as="geometry" />
        </mxCell>
        <mxCell id="eTMuSjd8Qrg-Vh-RTC_D-41" value="&lt;div&gt;// we always transition to idle&lt;/div&gt;" style="text;html=1;align=center;verticalAlign=middle;resizable=0;points=[];autosize=1;strokeColor=none;fillColor=none;" vertex="1" parent="1">
          <mxGeometry x="355" y="505" width="170" height="30" as="geometry" />
        </mxCell>
      </root>
    </mxGraphModel>
  </diagram>
</mxfile>
